<?xml version="1.0" encoding="UTF-8"?>
<svg width="105px" height="106px" viewBox="0 0 105 106" version="1.1" xmlns="http://www.w3.org/2000/svg" xmlns:xlink="http://www.w3.org/1999/xlink">
    <!-- Generator: Sketch 46.2 (44496) - http://www.bohemiancoding.com/sketch -->
    <title>Group</title>
    <desc>Created with Sketch.</desc>
    <defs></defs>
    <g id="Page-1" stroke="none" stroke-width="1" fill="none" fill-rule="evenodd">
        <g id="skin-3" transform="translate(-148.000000, 0.000000)" fill-rule="nonzero">
            <g id="Group" transform="translate(148.000000, 0.000000)">
                <path d="M104.1,105.898077 L104.1,105.694231 C104.1,91.0173077 98.8,76.7480769 92.2,74.0980769 L64.4,62.5807692 C57.9,59.8288462 47.2,59.8288462 40.7,62.5807692 L12.5,74.2 C6,76.85 0.6,91.1192308 0.6,105.796154 L0.6,106 L104.1,106 L104.1,105.898077 Z" id="Shape" fill="#55A896"></path>
                <path d="M63.2,62.9884615 C63.2,68.7980769 58.6,73.5884615 52.9,73.5884615 L51.7,73.5884615 C46,73.5884615 41.4,68.9 41.4,62.9884615 L41.4,35.775 C41.4,29.9653846 46,25.175 51.7,25.175 L52.9,25.175 C58.6,25.175 63.2,29.8634615 63.2,35.775 L63.2,62.9884615 Z" id="Shape" fill="#BA4A27"></path>
                <path d="M73.4,36.0807692 C73.4,48.4134615 64,58.4019231 52.4,58.4019231 L52.4,58.4019231 C40.8,58.4019231 31.4,48.4134615 31.4,36.0807692 L31.4,23.2384615 C31.4,10.9057692 40.8,0.917307692 52.4,0.917307692 L52.4,0.917307692 C64,0.917307692 73.4,10.9057692 73.4,23.2384615 L73.4,36.0807692 Z" id="Shape" fill="#E36A41"></path>
            </g>
        </g>
    </g>
</svg>