<?xml version="1.0" encoding="UTF-8"?>
<svg width="46px" height="41px" viewBox="0 0 46 41" version="1.1" xmlns="http://www.w3.org/2000/svg" xmlns:xlink="http://www.w3.org/1999/xlink">
    <!-- Generator: Sketch 46.2 (44496) - http://www.bohemiancoding.com/sketch -->
    <title>eyebrows3</title>
    <desc>Created with Sketch.</desc>
    <defs></defs>
    <g id="Page-1" stroke="none" stroke-width="1" fill="none" fill-rule="evenodd">
        <g id="Eyebrows" transform="translate(-109.000000, -45.000000)">
            <g id="color2" transform="translate(0.000000, 45.000000)">
                <g id="eyebrows3" transform="translate(109.000000, 0.000000)">
                    <g id="Boundaries" opacity="0.01">
                        <rect id="Rectangle" fill="#8D6464" opacity="0.545629529" x="0" y="0" width="46" height="41"></rect>
                        <path d="M45.5,8.5 L3.5,8.5" id="Line" stroke="#979797" stroke-linecap="square"></path>
                        <rect id="right" fill="#26E213" x="27.0999756" y="0" width="9.30000019" height="8"></rect>
                        <rect id="left" fill="#26E213" x="9.90002441" y="0" width="9.30000019" height="8"></rect>
                    </g>
                    <g id="Group" transform="translate(11.000000, 3.000000)" fill-rule="nonzero" fill="#14264B">
                        <path d="M8.4,1.5 C8.6,2.4 8,3.3 7.1,3.4 L2.2,4.3 C1.3,4.5 0.4,3.9 0.3,2.9 L0.3,2.9 C0.1,2 0.7,1.1 1.6,1 L6.5,0.1 C7.4,-5.55111512e-17 8.3,0.6 8.4,1.5 L8.4,1.5 Z" id="Shape"></path>
                        <path d="M16.2,1.5 C16,2.4 16.6,3.3 17.5,3.4 L22.4,4.3 C23.3,4.5 24.2,3.9 24.3,2.9 L24.3,2.9 C24.5,2 23.9,1.1 23,1 L18.1,0.1 C17.2,-5.55111512e-17 16.4,0.6 16.2,1.5 L16.2,1.5 Z" id="Shape"></path>
                    </g>
                </g>
            </g>
        </g>
    </g>
</svg>