<?xml version="1.0" encoding="UTF-8"?>
<svg width="46px" height="41px" viewBox="0 0 46 41" version="1.1" xmlns="http://www.w3.org/2000/svg" xmlns:xlink="http://www.w3.org/1999/xlink">
    <!-- Generator: Sketch 46.2 (44496) - http://www.bohemiancoding.com/sketch -->
    <title>eyebrows8</title>
    <desc>Created with Sketch.</desc>
    <defs></defs>
    <g id="Page-1" stroke="none" stroke-width="1" fill="none" fill-rule="evenodd">
        <g id="Eyebrows" transform="translate(-368.000000, -84.000000)">
            <g id="color3" transform="translate(0.000000, 84.000000)">
                <g id="eyebrows8" transform="translate(368.000000, 0.000000)">
                    <g id="Boundaries" opacity="0.01">
                        <rect id="Rectangle" fill="#8D6464" opacity="0.545629529" x="0" y="0" width="46" height="41"></rect>
                        <path d="M45.5,8.5 L3.5,8.5" id="Line" stroke="#979797" stroke-linecap="square"></path>
                        <rect id="right" fill="#26E213" x="27.0999756" y="0" width="9.30000019" height="8"></rect>
                        <rect id="left" fill="#26E213" x="9.90002441" y="0" width="9.30000019" height="8"></rect>
                    </g>
                    <g id="Group-4" transform="translate(9.000000, 1.000000)" fill-rule="nonzero" fill="#F0CA4A">
                        <path d="M3.2,5.7 C4.7,4.4 6.7,3.9 8.5,4.5 C10.2,5 10.9,2.4 9.2,1.9 C6.4,1.1 3.4,1.8 1.3,3.8 C0.1,5 1.9,6.9 3.2,5.7 L3.2,5.7 Z" id="Shape" transform="translate(5.541556, 3.829288) scale(1, -1) rotate(15.000000) translate(-5.541556, -3.829288) "></path>
                        <path d="M19.1,1.90388405 C17.4,2.40388405 18.1,5.00388405 19.8,4.50388405 C21.7,4.00388405 23.7,4.40388405 25.1,5.70388405 C26.4,6.90388405 28.2,5.00388405 27,3.80388405 C24.8,1.80388405 21.9,1.10388405 19.1,1.90388405 Z" id="Shape" transform="translate(22.758444, 3.833172) scale(1, -1) rotate(-9.000000) translate(-22.758444, -3.833172) "></path>
                    </g>
                </g>
            </g>
        </g>
    </g>
</svg>