<?xml version="1.0" encoding="UTF-8"?>
<svg width="84px" height="72px" viewBox="0 0 84 72" version="1.1" xmlns="http://www.w3.org/2000/svg" xmlns:xlink="http://www.w3.org/1999/xlink">
    <!-- Generator: Sketch 46.2 (44496) - http://www.bohemiancoding.com/sketch -->
    <title>hair8</title>
    <desc>Created with Sketch.</desc>
    <defs></defs>
    <g id="Page-1" stroke="none" stroke-width="1" fill="none" fill-rule="evenodd">
        <g id="hair" transform="translate(-687.000000, -4.000000)">
            <g id="color1">
                <g id="hair8" transform="translate(687.000000, 4.000000)">
                    <g id="Boundaries" opacity="0.00792572464">
                        <rect id="Rectangle-Copy-4" fill="#8D6464" opacity="0.380661232" x="0" y="0" width="84" height="72"></rect>
                        <path d="M83.5,16.5 L3.5,16.5" id="Line" stroke="#979797" stroke-linecap="square"></path>
                        <path d="M62.5,39.5 L20.5,39.5" id="Line" stroke="#979797" stroke-linecap="square"></path>
                        <rect id="right" fill="#26E213" opacity="0" x="44.0999756" y="31" width="9.30000019" height="8"></rect>
                        <rect id="left" fill="#26E213" opacity="0" x="26.9000244" y="31" width="9.30000019" height="8"></rect>
                        <g id="Group" transform="translate(26.000000, 33.579987)" fill-rule="nonzero" fill="#E36A41">
                            <path d="M3.3,4.12389748 C4.8,2.82389748 6.8,2.32389748 8.6,2.92389748 C10.3,3.42389748 11,0.823897481 9.3,0.323897481 C6.5,-0.476102519 3.5,0.223897481 1.4,2.22389748 C0.1,3.42389748 2,5.32389748 3.3,4.12389748 L3.3,4.12389748 Z" id="Shape"></path>
                            <path d="M27,2.22389748 C24.8,0.223897481 21.9,-0.476102519 19.1,0.323897481 C17.4,0.823897481 18.1,3.42389748 19.8,2.92389748 C21.7,2.42389748 23.7,2.82389748 25.1,4.12389748 C26.4,5.32389748 28.3,3.42389748 27,2.22389748 L27,2.22389748 Z" id="Shape"></path>
                        </g>
                        <g id="Group" transform="translate(30.000000, 53.000000)" fill-rule="nonzero" fill="#BA4A27">
                            <polygon id="Shape" points="10.2666667 3.8 0 3.8 10.2666667 0.3"></polygon>
                            <polygon id="Shape" points="11.1047619 3.8 21.3714286 3.8 11.1047619 0.3"></polygon>
                        </g>
                    </g>
                    <g id="Group" transform="translate(17.000000, 9.000000)" fill-rule="nonzero" fill="#F0CA4A" opacity="0">
                        <g id="Shape">
                            <polygon points="3.47234043 34.6 0.714893617 34.6 0.714893617 16.3 6.53617021 13.3"></polygon>
                            <path d="M37.8893617,0.5 L24.7148936,0.5 L23.2851064,0.5 L10.1106383,0.5 C4.90212766,0.5 0.714893617,4.7 0.714893617,9.8 L0.714893617,18.2 L0.714893617,24.2 C3.26808511,17.6 5.71914894,14.8 11.1319149,14 C12.0510638,17.1 17.4638298,19.5 24,19.5 C30.5361702,19.5 35.9489362,17.1 36.8680851,14 C42.2808511,14.8 44.7319149,17.5 47.2851064,24.2 L47.2851064,18.2 L47.2851064,9.8 C47.2851064,4.6 43.0978723,0.5 37.8893617,0.5 Z"></path>
                            <polygon points="47 34 44.1578947 34 41 13 47 15.9577465"></polygon>
                        </g>
                    </g>
                    <g id="Group" transform="translate(18.000000, 13.000000)" fill-rule="nonzero" fill="#F0CA4A">
                        <polygon id="Shape" points="41.6 28.4 44.3 28.4 44.4 11.1 39 8.3"></polygon>
                        <polygon id="Shape" points="0.8 28.4 3.5 28.4 6.4 8.3 0.8 11"></polygon>
                        <path d="M40.6081677,9.51433212 C40.2081677,13.6143321 31.5081677,16.2143321 21.1081677,15.2143321 C10.7081677,14.2143321 2.7081677,10.0143321 3.0081677,5.91433212 C3.4081677,1.81433212 12.1081677,-0.785667882 22.5081677,0.214332118 C32.9081677,1.21433212 41.0081677,5.41433212 40.6081677,9.51433212 Z" id="Shape"></path>
                    </g>
                </g>
            </g>
        </g>
    </g>
</svg>