<?xml version="1.0" encoding="UTF-8"?>
<svg width="84px" height="72px" viewBox="0 0 84 72" version="1.1" xmlns="http://www.w3.org/2000/svg" xmlns:xlink="http://www.w3.org/1999/xlink">
    <!-- Generator: Sketch 46.2 (44496) - http://www.bohemiancoding.com/sketch -->
    <title>hair1</title>
    <desc>Created with Sketch.</desc>
    <defs></defs>
    <g id="Page-1" stroke="none" stroke-width="1" fill="none" fill-rule="evenodd" opacity="0.01">
        <g id="hair" transform="translate(0.000000, -3.000000)">
            <g id="color1">
                <g id="hair1" transform="translate(0.000000, 3.000000)">
                    <g id="Boundaries">
                        <rect id="Rectangle" fill="#8D6464" opacity="0.380661232" x="0" y="0" width="84" height="72"></rect>
                        <path d="M83.5,16.5 L3.5,16.5" id="Line" stroke="#979797" stroke-linecap="square"></path>
                        <path d="M62.5,39.5 L20.5,39.5" id="Line" stroke="#979797" stroke-linecap="square"></path>
                        <rect id="right" fill="#26E213" opacity="0" x="44.0999756" y="31" width="9.30000019" height="8"></rect>
                        <rect id="left" fill="#26E213" opacity="0" x="26.9000244" y="31" width="9.30000019" height="8"></rect>
                        <g id="Group" transform="translate(26.000000, 33.579987)" fill-rule="nonzero" fill="#E36A41">
                            <path d="M3.3,4.12389748 C4.8,2.82389748 6.8,2.32389748 8.6,2.92389748 C10.3,3.42389748 11,0.823897481 9.3,0.323897481 C6.5,-0.476102519 3.5,0.223897481 1.4,2.22389748 C0.1,3.42389748 2,5.32389748 3.3,4.12389748 L3.3,4.12389748 Z" id="Shape"></path>
                            <path d="M27,2.22389748 C24.8,0.223897481 21.9,-0.476102519 19.1,0.323897481 C17.4,0.823897481 18.1,3.42389748 19.8,2.92389748 C21.7,2.42389748 23.7,2.82389748 25.1,4.12389748 C26.4,5.32389748 28.3,3.42389748 27,2.22389748 L27,2.22389748 Z" id="Shape"></path>
                        </g>
                        <g id="Group" transform="translate(30.000000, 53.000000)" fill-rule="nonzero" fill="#BA4A27">
                            <polygon id="Shape" points="10.2666667 3.8 0 3.8 10.2666667 0.3"></polygon>
                            <polygon id="Shape" points="11.1047619 3.8 21.3714286 3.8 11.1047619 0.3"></polygon>
                        </g>
                    </g>
                </g>
            </g>
        </g>
    </g>
</svg>