<?xml version="1.0" encoding="UTF-8"?>
<svg width="105px" height="106px" viewBox="0 0 105 106" version="1.1" xmlns="http://www.w3.org/2000/svg" xmlns:xlink="http://www.w3.org/1999/xlink">
    <!-- Generator: Sketch 46.2 (44496) - http://www.bohemiancoding.com/sketch -->
    <title>Group</title>
    <desc>Created with Sketch.</desc>
    <defs></defs>
    <g id="Page-1" stroke="none" stroke-width="1" fill="none" fill-rule="evenodd">
        <g id="Group" fill-rule="nonzero">
            <path d="M105,106 L105,105.771245 C105,90.9021677 99.5947426,76.6049779 92.924425,73.8599175 L64.7480832,62.1934107 C58.0777656,59.4483503 47.2672508,59.4483503 40.7119387,62.1934107 L12.075575,73.8599175 C5.40525739,76.6049779 0,90.9021677 0,105.771245 L0,106 L105,106 Z" id="Shape" fill="#2782AB"></path>
            <path d="M66.5346535,65.8958605 C66.5346535,72.2962842 61.0505041,77.4615385 54.2549278,77.4615385 L52.8242801,77.4615385 C46.0287038,77.4615385 40.5445545,72.2962842 40.5445545,65.8958605 L40.5445545,36.0272164 C40.5445545,29.6267927 46.0287038,24.4615385 52.8242801,24.4615385 L54.2549278,24.4615385 C61.0505041,24.4615385 66.5346535,29.6267927 66.5346535,36.0272164 L66.5346535,65.8958605 Z" id="Shape" fill="#F18C80"></path>
            <path d="M55.5771602,0 L50.3988026,0 C42.9189528,0 36.014476,3.55921856 31.7567153,9.4541743 C31.7567153,9.4541743 31.7567153,9.4541743 31.7567153,9.4541743 C29.6853723,12.3460394 28.7647754,15.9052579 29.2250738,19.4644765 L32.6773122,47.4933226 C32.6773122,52.2760226 36.9350729,56.0576923 42.1134305,56.0576923 L64.4379054,56.0576923 C69.616263,56.0576923 73.8740237,52.164797 73.8740237,47.4933226 L76.8659636,19.3532509 C77.2111874,15.6828068 76.1755159,11.9011371 73.7589491,8.8980464 C73.6438744,8.67559524 73.4137252,8.56436966 73.2986506,8.3419185 C69.1559645,3.11431624 62.5967116,0 55.5771602,0 Z" id="Shape" fill="#F7B1AD"></path>
            <g transform="translate(23.910891, 19.365385)" id="Shape" fill="#F7B1AD">
                <path d="M11.7375286,8.15384615 C13.4468774,13.25 12.5352247,18.232906 9.57235339,19.2521368 C6.6094821,20.2713675 2.8489147,16.9871795 1.02560929,11.8910256 C-0.683739528,6.79487179 0.227913176,1.81196581 3.19078446,0.792735043 C6.15365575,-0.226495726 9.91422315,3.05769231 11.7375286,8.15384615 Z"></path>
                <path d="M47.5198972,8.15384615 C45.8105484,13.25 46.7222011,18.232906 49.6850724,19.2521368 C52.6479436,20.2713675 56.408511,16.9871795 58.2318165,11.8910256 C59.9411653,6.79487179 59.0295126,1.81196581 56.0666413,0.792735043 C53.10377,-0.226495726 49.3432026,3.05769231 47.5198972,8.15384615 Z"></path>
            </g>
        </g>
    </g>
</svg>