<?xml version="1.0" encoding="UTF-8"?>
<svg width="105px" height="106px" viewBox="0 0 105 106" version="1.1" xmlns="http://www.w3.org/2000/svg" xmlns:xlink="http://www.w3.org/1999/xlink">
    <!-- Generator: Sketch 46.2 (44496) - http://www.bohemiancoding.com/sketch -->
    <title>head3 copy</title>
    <desc>Created with Sketch.</desc>
    <defs></defs>
    <g id="Page-1" stroke="none" stroke-width="1" fill="none" fill-rule="evenodd">
        <g id="skin1" transform="translate(-296.000000, -2.000000)" fill-rule="nonzero">
            <g id="head3-copy" transform="translate(296.000000, 2.000000)">
                <path d="M104.3,105.064706 L104.3,104.856863 C104.2,89.8921569 98.7,75.3431373 92.2,72.6411765 L64.2,61.1058824 C57.6,58.4039216 46.9,58.4039216 40.4,61.2098039 L12.2,73.2647059 C5.7,76.0705882 0.4,90.6196078 0.5,105.584314 L0.5,105.792157 L104.3,105.064706 Z" id="Shape" fill="#2782AB"></path>
                <path d="M64.3,61.0019608 C64.3,67.5490196 59.3,72.745098 53,72.745098 L51.6,72.745098 C45.4,72.745098 40.3,67.445098 40.3,61.0019608 L40.3,30.6568627 C40.3,24.1098039 45.3,18.9137255 51.6,18.9137255 L53,18.9137255 C59.2,18.9137255 64.3,24.2137255 64.3,30.6568627 L64.3,61.0019608 Z" id="Shape" fill="#F18C80"></path>
                <g id="Group" transform="translate(26.000000, 22.862745)" fill="#F18C80">
                    <path d="M10.7,6.44313725 C12.3,10.0803922 11.5,13.6137255 8.9,14.3411765 C6.3,15.0686275 3,12.7823529 1.4,9.14509804 C-0.2,5.50784314 0.6,1.9745098 3.2,1.24705882 C5.7,0.519607843 9.1,2.80588235 10.7,6.44313725 Z" id="Shape"></path>
                    <path d="M42.1,6.23529412 C40.6,9.87254902 41.4,13.4058824 44,14.1333333 C46.6,14.8607843 49.9,12.4705882 51.4,8.83333333 C52.9,5.19607843 52.1,1.6627451 49.5,0.935294118 C47,0.207843137 43.7,2.59803922 42.1,6.23529412 Z" id="Shape"></path>
                </g>
                <path d="M54.7,0.935294118 L50.2,0.935294118 C43.7,0.935294118 37.7,4.26078431 34,9.76862745 C34,9.76862745 34,9.76862745 34,9.76862745 C32.2,12.4705882 31.4,15.7960784 31.8,19.1215686 L34.8,45.3098039 C34.8,49.7784314 38.5,53.3117647 43,53.3117647 L62.4,53.3117647 C66.9,53.3117647 70.6,49.6745098 70.6,45.3098039 L73.2,19.0176471 C73.5,15.5882353 72.6,12.054902 70.5,9.24901961 C70.4,9.04117647 70.2,8.9372549 70.1,8.72941176 C66.4,3.84509804 60.7,0.935294118 54.7,0.935294118 Z" id="Shape" fill="#F7B1AD"></path>
            </g>
        </g>
    </g>
</svg>