<?xml version="1.0" encoding="UTF-8"?>
<svg width="46px" height="41px" viewBox="0 0 46 41" version="1.1" xmlns="http://www.w3.org/2000/svg" xmlns:xlink="http://www.w3.org/1999/xlink">
    <!-- Generator: Sketch 46.2 (44496) - http://www.bohemiancoding.com/sketch -->
    <title>facial1</title>
    <desc>Created with Sketch.</desc>
    <defs></defs>
    <g id="Page-1" stroke="none" stroke-width="1" fill="none" fill-rule="evenodd">
        <g id="Facial" transform="translate(0.000000, -171.000000)">
            <g id="color4" transform="translate(0.000000, 171.000000)">
                <g id="facial1">
                    <g id="Boundaries" opacity="0.01">
                        <rect id="Rectangle" fill="#8D6464" opacity="0.545629529" x="0" y="0" width="46" height="41"></rect>
                        <path d="M45.5,8.5 L3.5,8.5" id="Line" stroke="#979797" stroke-linecap="square"></path>
                        <rect id="right" fill="#26E213" x="27.0999756" y="0" width="9.30000019" height="8"></rect>
                        <rect id="left" fill="#26E213" x="9.90002441" y="0" width="9.30000019" height="8"></rect>
                    </g>
                    <path d="M12.2,6.7 C13.7,5.4 15.7,4.9 17.5,5.5 C19.2,6 19.9,3.4 18.2,2.9 C15.4,2.1 12.4,2.8 10.3,4.8 C9.1,6 10.9,7.9 12.2,6.7 L12.2,6.7 Z" id="Shape" fill="#833B23" fill-rule="nonzero" opacity="0"></path>
                    <path d="M28.1,2.90388405 C26.4,3.40388405 27.1,6.00388405 28.8,5.50388405 C30.7,5.00388405 32.7,5.40388405 34.1,6.70388405 C35.4,7.90388405 37.2,6.00388405 36,4.80388405 C33.8,2.80388405 30.9,2.10388405 28.1,2.90388405 Z" id="Shape" fill="#833B23" fill-rule="nonzero" opacity="0"></path>
                </g>
            </g>
        </g>
    </g>
</svg>