<?xml version="1.0" encoding="UTF-8"?>
<svg width="46px" height="42px" viewBox="0 0 46 42" version="1.1" xmlns="http://www.w3.org/2000/svg" xmlns:xlink="http://www.w3.org/1999/xlink">
    <!-- Generator: Sketch 46.2 (44496) - http://www.bohemiancoding.com/sketch -->
    <title>facial7</title>
    <desc>Created with Sketch.</desc>
    <defs></defs>
    <g id="Page-1" stroke="none" stroke-width="1" fill="none" fill-rule="evenodd">
        <g id="Facial" transform="translate(-333.000000, -57.000000)">
            <g id="color2" transform="translate(0.000000, 57.000000)">
                <g id="facial7" transform="translate(333.000000, 0.000000)">
                    <g id="Boundaries" opacity="0.01">
                        <rect id="Rectangle-Copy-2" fill="#8D6464" opacity="0.545629529" x="0" y="0" width="46" height="41"></rect>
                        <path d="M45.5,8.5 L3.5,8.5" id="Line" stroke="#979797" stroke-linecap="square"></path>
                        <rect id="right" fill="#26E213" x="27.0999756" y="0" width="9.30000019" height="8"></rect>
                        <rect id="left" fill="#26E213" x="9.90002441" y="0" width="9.30000019" height="8"></rect>
                    </g>
                    <g id="Group" opacity="0" transform="translate(9.000000, 2.000000)" fill-rule="nonzero" fill="#17204D">
                        <path d="M3.3,4.70388405 C4.8,3.40388405 6.8,2.90388405 8.6,3.50388405 C10.3,4.00388405 11,1.40388405 9.3,0.903884053 C6.5,0.103884053 3.5,0.803884053 1.4,2.80388405 C0.1,4.00388405 2,5.90388405 3.3,4.70388405 L3.3,4.70388405 Z" id="Shape"></path>
                        <path d="M27,2.80388405 C24.8,0.803884053 21.9,0.103884053 19.1,0.903884053 C17.4,1.40388405 18.1,4.00388405 19.8,3.50388405 C21.7,3.00388405 23.7,3.40388405 25.1,4.70388405 C26.4,5.90388405 28.3,4.00388405 27,2.80388405 L27,2.80388405 Z" id="Shape"></path>
                    </g>
                    <path d="M32.8185709,25.3517787 C38.4585708,25.3517787 43.3935707,21.3438735 44.2999992,16 L44.2999992,30.798419 C44.2999992,36.9644269 39.1635708,42 32.8185709,42 L13.4814284,42 C7.13642848,42 2,36.9644269 2,30.798419 L2,16 C2.90642856,21.3438735 7.84142847,25.3517787 13.4814284,25.3517787 L32.8185709,25.3517787 Z M16.85,26.3 L16.85,26.3 C14.7237037,26.3 13,28.0237037 13,30.15 C13,32.2762963 14.7237037,34 16.85,34 L16.85,34 L30.15,34 C32.2762963,34 34,32.2762963 34,30.15 L34,30.15 C34,28.0237037 32.2762963,26.3 30.15,26.3 L30.15,26.3 L16.85,26.3 Z" id="Combined-Shape" fill="#090F30" fill-rule="nonzero"></path>
                </g>
            </g>
        </g>
    </g>
</svg>