<?xml version="1.0" encoding="UTF-8"?>
<svg width="28px" height="41px" viewBox="0 0 28 41" version="1.1" xmlns="http://www.w3.org/2000/svg" xmlns:xlink="http://www.w3.org/1999/xlink">
    <!-- Generator: Sketch 46.2 (44496) - http://www.bohemiancoding.com/sketch -->
    <title>Group 2 Copy 2</title>
    <desc>Created with Sketch.</desc>
    <defs></defs>
    <g id="Page-1" stroke="none" stroke-width="1" fill="none" fill-rule="evenodd">
        <g id="Facial" transform="translate(-52.000000, 0.000000)" fill-rule="nonzero">
            <g id="color1">
                <g id="Group-2-Copy-2" transform="translate(52.000000, 0.000000)">
                    <g id="Group" fill="#E36A41">
                        <path d="M3.3,4.7 C4.8,3.4 6.8,2.9 8.6,3.5 C10.3,4 11,1.4 9.3,0.9 C6.5,0.1 3.5,0.8 1.4,2.8 C0.1,4 2,5.9 3.3,4.7 L3.3,4.7 Z" id="Shape"></path>
                        <path d="M27,2.8 C24.8,0.8 21.9,0.1 19.1,0.9 C17.4,1.4 18.1,4 19.8,3.5 C21.7,3 23.7,3.4 25.1,4.7 C26.4,5.9 28.3,4 27,2.8 L27,2.8 Z" id="Shape"></path>
                    </g>
                    <g id="Group" transform="translate(4.000000, 21.000000)" fill="#BA4A27">
                        <polygon id="Shape" points="10.2666667 3.8 0 3.8 10.2666667 0.3"></polygon>
                        <polygon id="Shape" points="11.1047619 3.8 21.3714286 3.8 11.1047619 0.3"></polygon>
                    </g>
                    <path d="M14.8472551,34.5616365 C11.3773969,34.5616365 8.43327488,33.4179365 6.75091942,31.6504002 C5.90974169,32.5861547 5.38400561,33.6258819 5.38400561,34.7695819 C5.38400561,38.0967091 9.58989426,40.8 14.8472551,40.8 C20.1046159,40.8 24.3105045,38.0967091 24.3105045,34.7695819 C24.3105045,33.6258819 23.7847685,32.5861547 22.9435907,31.6504002 C21.2612353,33.4179365 18.3171132,34.5616365 14.8472551,34.5616365 Z" id="Shape" fill="#BA4A27"></path>
                </g>
            </g>
        </g>
    </g>
</svg>