<?xml version="1.0" encoding="UTF-8"?>
<svg width="46px" height="41px" viewBox="0 0 46 41" version="1.1" xmlns="http://www.w3.org/2000/svg" xmlns:xlink="http://www.w3.org/1999/xlink">
    <!-- Generator: Sketch 46.2 (44496) - http://www.bohemiancoding.com/sketch -->
    <title>eyebrows7</title>
    <desc>Created with Sketch.</desc>
    <defs></defs>
    <g id="Page-1" stroke="none" stroke-width="1" fill="none" fill-rule="evenodd">
        <g id="color4" transform="translate(-321.000000, -1.000000)">
            <g id="eyebrows7" transform="translate(321.000000, 1.000000)">
                <g id="Boundaries" opacity="0.01">
                    <rect id="Rectangle" fill="#8D6464" opacity="0.545629529" x="0" y="0" width="46" height="41"></rect>
                    <path d="M45.5,8.5 L3.5,8.5" id="Line" stroke="#979797" stroke-linecap="square"></path>
                    <rect id="right" fill="#26E213" x="27.0999756" y="0" width="9.30000019" height="8"></rect>
                    <rect id="left" fill="#26E213" x="9.90002441" y="0" width="9.30000019" height="8"></rect>
                </g>
                <path d="M17.5,6.5 C19.2,7 19.9,4.4 18.2,3.9 C15.4,3.1 12.4,3.8 10.3,5.8 C9.1,7 10.9,8.9 12.2,7.7 C13.7,6.4 15.7,5.9 17.5,6.5 Z" id="Shape" fill="#833B23" fill-rule="nonzero"></path>
                <path d="M28.1,0.903884053 C26.4,1.40388405 27.1,4.00388405 28.8,3.50388405 C30.7,3.00388405 32.7,3.40388405 34.1,4.70388405 C35.4,5.90388405 37.2,4.00388405 36,2.80388405 C33.8,0.803884053 30.9,0.103884053 28.1,0.903884053 Z" id="Shape" fill="#833B23" fill-rule="nonzero"></path>
            </g>
        </g>
    </g>
</svg>