<?xml version="1.0" encoding="UTF-8"?>
<svg width="46px" height="41px" viewBox="0 0 46 41" version="1.1" xmlns="http://www.w3.org/2000/svg" xmlns:xlink="http://www.w3.org/1999/xlink">
    <!-- Generator: Sketch 46.2 (44496) - http://www.bohemiancoding.com/sketch -->
    <title>facial5</title>
    <desc>Created with Sketch.</desc>
    <defs></defs>
    <g id="Page-1" stroke="none" stroke-width="1" fill="none" fill-rule="evenodd">
        <g id="Facial" transform="translate(-219.000000, -1.000000)">
            <g id="color1">
                <g id="facial5" transform="translate(219.000000, 1.000000)">
                    <g id="Boundaries" opacity="0.01">
                        <rect id="Rectangle" fill="#8D6464" opacity="0.545629529" x="0" y="0" width="46" height="41"></rect>
                        <path d="M45.5,8.5 L3.5,8.5" id="Line" stroke="#979797" stroke-linecap="square"></path>
                        <rect id="right" fill="#26E213" x="27.0999756" y="0" width="9.30000019" height="8"></rect>
                        <rect id="left" fill="#26E213" x="9.90002441" y="0" width="9.30000019" height="8"></rect>
                    </g>
                    <path d="M17.5,5.50388405 C19.2,6.00388405 19.9,3.40388405 18.2,2.90388405 C15.4,2.10388405 12.4,2.80388405 10.3,4.80388405 C9.1,6.00388405 10.9,7.90388405 12.2,6.70388405 C13.7,5.40388405 15.7,4.90388405 17.5,5.50388405 Z" id="Shape" fill="#E36A41" fill-rule="nonzero" opacity="0"></path>
                    <path d="M28.1,2.90388405 C26.4,3.40388405 27.1,6.00388405 28.8,5.50388405 C30.7,5.00388405 32.7,5.40388405 34.1,6.70388405 C35.4,7.90388405 37.2,6.00388405 36,4.80388405 C33.8,2.80388405 30.9,2.10388405 28.1,2.90388405 Z" id="Shape" fill="#E36A41" fill-rule="nonzero" opacity="0"></path>
                    <g id="Group" transform="translate(12.000000, 21.000000)" fill-rule="nonzero" fill="#BA4A27">
                        <g transform="translate(10.000000, 0.000000)" id="Shape">
                            <path d="M5.6,1.6 L1.1,5.5 C1.2,5.7 1.4,5.9 1.5,6.1 C3.3,8.2 6.9,8 9.6,5.6 C11.2,4.2 12.1,2.3 12.2,0.6 C10.1,2.3 7.4,2.6 5.6,1.6 Z"></path>
                            <path d="M5.6,1.6 C6.4,2.4 6.1,4 4.9,5.2 C3.7,6.4 2.1,6.6 1.4,5.8 C0.6,5 0.9,3.4 2.1,2.2 C3.2,1 4.8,0.8 5.6,1.6 Z"></path>
                        </g>
                        <g id="Shape">
                            <path d="M6.7,1.6 L11.2,5.5 C11.1,5.7 10.9,5.9 10.8,6.1 C9,8.2 5.4,8 2.7,5.6 C1.1,4.2 0.2,2.3 0.1,0.6 C2.2,2.3 4.9,2.6 6.7,1.6 Z"></path>
                            <path d="M6.7,1.6 C5.9,2.4 6.2,4 7.4,5.2 C8.6,6.4 10.2,6.6 10.9,5.8 C11.7,5 11.4,3.4 10.2,2.2 C9.1,1 7.5,0.8 6.7,1.6 Z"></path>
                        </g>
                    </g>
                </g>
            </g>
        </g>
    </g>
</svg>