<?xml version="1.0" encoding="UTF-8"?>
<svg width="46px" height="43px" viewBox="0 0 46 43" version="1.1" xmlns="http://www.w3.org/2000/svg" xmlns:xlink="http://www.w3.org/1999/xlink">
    <!-- Generator: Sketch 46.2 (44496) - http://www.bohemiancoding.com/sketch -->
    <title>facial4</title>
    <desc>Created with Sketch.</desc>
    <defs></defs>
    <g id="Page-1" stroke="none" stroke-width="1" fill="none" fill-rule="evenodd">
        <g id="Facial" transform="translate(-167.000000, 0.000000)">
            <g id="color1">
                <g id="facial4" transform="translate(167.000000, 0.000000)">
                    <g id="Boundaries" opacity="0.01">
                        <rect id="Rectangle" fill="#8D6464" opacity="0.545629529" x="0" y="0" width="46" height="41"></rect>
                        <path d="M45.5,8.5 L3.5,8.5" id="Line" stroke="#979797" stroke-linecap="square"></path>
                        <rect id="right" fill="#26E213" x="27.0999756" y="0" width="9.30000019" height="8"></rect>
                        <rect id="left" fill="#26E213" x="9.90002441" y="0" width="9.30000019" height="8"></rect>
                    </g>
                    <g id="Group" transform="translate(9.000000, 2.579987)" fill-rule="nonzero" fill="#E36A41">
                        <path d="M3.3,4.12389748 C4.8,2.82389748 6.8,2.32389748 8.6,2.92389748 C10.3,3.42389748 11,0.823897481 9.3,0.323897481 C6.5,-0.476102519 3.5,0.223897481 1.4,2.22389748 C0.1,3.42389748 2,5.32389748 3.3,4.12389748 L3.3,4.12389748 Z" id="Shape"></path>
                        <path d="M27,2.22389748 C24.8,0.223897481 21.9,-0.476102519 19.1,0.323897481 C17.4,0.823897481 18.1,3.42389748 19.8,2.92389748 C21.7,2.42389748 23.7,2.82389748 25.1,4.12389748 C26.4,5.32389748 28.3,3.42389748 27,2.22389748 L27,2.22389748 Z" id="Shape"></path>
                    </g>
                    <g id="Group" transform="translate(13.000000, 22.000000)" fill-rule="nonzero" fill="#BA4A27">
                        <polygon id="Shape" points="10.2666667 3.8 0 3.8 10.2666667 0.3"></polygon>
                        <polygon id="Shape" points="11.1047619 3.8 21.3714286 3.8 11.1047619 0.3"></polygon>
                    </g>
                    <path d="M23.8472551,36.5616365 C20.3773969,36.5616365 17.4332749,35.4179365 15.7509194,33.6504002 C14.9097417,34.5861547 14.3840056,35.6258819 14.3840056,36.7695819 C14.3840056,40.0967091 18.5898943,42.8 23.8472551,42.8 C29.1046159,42.8 33.3105045,40.0967091 33.3105045,36.7695819 C33.3105045,35.6258819 32.7847685,34.5861547 31.9435907,33.6504002 C30.2612353,35.4179365 27.3171132,36.5616365 23.8472551,36.5616365 Z" id="Shape" fill="#BA4A27" fill-rule="nonzero"></path>
                </g>
            </g>
        </g>
    </g>
</svg>