<?xml version="1.0" encoding="UTF-8"?>
<svg width="46px" height="45px" viewBox="0 0 46 45" version="1.1" xmlns="http://www.w3.org/2000/svg" xmlns:xlink="http://www.w3.org/1999/xlink">
    <!-- Generator: Sketch 46.2 (44496) - http://www.bohemiancoding.com/sketch -->
    <title>facial9</title>
    <desc>Created with Sketch.</desc>
    <defs></defs>
    <g id="Page-1" stroke="none" stroke-width="1" fill="none" fill-rule="evenodd">
        <g id="Facial" transform="translate(-465.000000, 0.000000)">
            <g id="color1">
                <g id="facial9" transform="translate(465.000000, 0.000000)">
                    <g id="Boundaries" opacity="0.01">
                        <rect id="Rectangle-Copy-4" fill="#8D6464" opacity="0.545629529" x="0" y="0" width="46" height="41"></rect>
                        <path d="M45.5,8.5 L3.5,8.5" id="Line" stroke="#979797" stroke-linecap="square"></path>
                        <rect id="right" fill="#26E213" x="27.0999756" y="0" width="9.30000019" height="8"></rect>
                        <rect id="left" fill="#26E213" x="9.90002441" y="0" width="9.30000019" height="8"></rect>
                    </g>
                    <g id="Group" transform="translate(9.000000, 2.579987)" fill-rule="nonzero" fill="#E36A41">
                        <path d="M3.3,4.12389748 C4.8,2.82389748 6.8,2.32389748 8.6,2.92389748 C10.3,3.42389748 11,0.823897481 9.3,0.323897481 C6.5,-0.476102519 3.5,0.223897481 1.4,2.22389748 C0.1,3.42389748 2,5.32389748 3.3,4.12389748 L3.3,4.12389748 Z" id="Shape"></path>
                        <path d="M27,2.22389748 C24.8,0.223897481 21.9,-0.476102519 19.1,0.323897481 C17.4,0.823897481 18.1,3.42389748 19.8,2.92389748 C21.7,2.42389748 23.7,2.82389748 25.1,4.12389748 C26.4,5.32389748 28.3,3.42389748 27,2.22389748 L27,2.22389748 Z" id="Shape"></path>
                    </g>
                    <g id="Beard" opacity="0.364130435" transform="translate(2.400024, 20.000000)" fill-rule="nonzero" fill="#B64A24">
                        <path d="M21,18 C14.5934969,18 9.4,14.8659932 9.4,11 C9.4,7.13400675 14.5934969,4 21,4 C27.4065031,4 32.6,7.13400675 32.6,11 C32.6,14.8659932 27.4065031,18 21,18 Z M21,16 C25.6944204,16 29.5,13.7614237 29.5,11 C29.5,8.23857625 25.6944204,6 21,6 C16.3055796,6 12.5,8.23857625 12.5,11 C12.5,13.7614237 16.3055796,16 21,16 Z" id="Combined-Shape"></path>
                        <path d="M39.9,0 C36.5,7.3 29.3,12.3 21,12.3 C12.7,12.3 5.5,7.3 2.1,0 L0,0 L0,2.5 C0,14.6 9.4,24.3 21,24.3 C32.6,24.3 42,14.5 42,2.5 L42,0 L39.9,0 Z" id="Shape"></path>
                    </g>
                </g>
            </g>
        </g>
    </g>
</svg>