<?xml version="1.0" encoding="UTF-8"?>
<svg width="28px" height="39px" viewBox="0 0 28 39" version="1.1" xmlns="http://www.w3.org/2000/svg" xmlns:xlink="http://www.w3.org/1999/xlink">
    <!-- Generator: Sketch 46.2 (44496) - http://www.bohemiancoding.com/sketch -->
    <title>Group 2</title>
    <desc>Created with Sketch.</desc>
    <defs></defs>
    <g id="Page-1" stroke="none" stroke-width="1" fill="none" fill-rule="evenodd">
        <g id="Facial" transform="translate(-56.000000, 0.000000)" fill-rule="nonzero">
            <g id="color1">
                <g id="Group-2" transform="translate(56.000000, 0.000000)">
                    <g id="Group" fill="#E36A41">
                        <path d="M3.3,4.7 C4.8,3.4 6.8,2.9 8.6,3.5 C10.3,4 11,1.4 9.3,0.9 C6.5,0.1 3.5,0.8 1.4,2.8 C0.1,4 2,5.9 3.3,4.7 L3.3,4.7 Z" id="Shape"></path>
                        <path d="M27,2.8 C24.8,0.8 21.9,0.1 19.1,0.9 C17.4,1.4 18.1,4 19.8,3.5 C21.7,3 23.7,3.4 25.1,4.7 C26.4,5.9 28.3,4 27,2.8 L27,2.8 Z" id="Shape"></path>
                    </g>
                    <g id="Group" transform="translate(4.000000, 20.000000)" fill="#BA4A27">
                        <polygon id="Shape" points="9.8 3.8 0 3.8 9.8 0.3"></polygon>
                        <polygon id="Shape" points="10.6 3.8 20.4 3.8 10.6 0.3"></polygon>
                    </g>
                    <path d="M14,32.8 C10.7,32.8 7.9,31.7 6.3,30 C5.5,30.9 5,31.9 5,33 C5,36.2 9,38.8 14,38.8 C19,38.8 23,36.2 23,33 C23,31.9 22.5,30.9 21.7,30 C20.1,31.7 17.3,32.8 14,32.8 Z" id="Shape" fill="#BA4A27"></path>
                </g>
            </g>
        </g>
    </g>
</svg>