<?xml version="1.0" encoding="UTF-8"?>
<svg width="46px" height="42px" viewBox="0 0 46 42" version="1.1" xmlns="http://www.w3.org/2000/svg" xmlns:xlink="http://www.w3.org/1999/xlink">
    <!-- Generator: Sketch 46.2 (44496) - http://www.bohemiancoding.com/sketch -->
    <title>glasses6</title>
    <desc>Created with Sketch.</desc>
    <defs></defs>
    <g id="Page-1" stroke="none" stroke-width="1" fill="none" fill-rule="evenodd">
        <g id="glasses" transform="translate(0.000000, -35.000000)">
            <g id="glasses6" transform="translate(0.000000, 35.000000)">
                <g id="Boundaries" opacity="0.01">
                    <rect id="Rectangle" fill="#8D6464" opacity="0.545629529" x="0" y="1" width="46" height="41"></rect>
                    <path d="M45.5,8.5 L3.5,8.5" id="Line" stroke="#979797" stroke-linecap="square"></path>
                    <rect id="right" fill="#26E213" x="27.0999756" y="0" width="9.30000019" height="8"></rect>
                    <rect id="left" fill="#26E213" x="9.90002441" y="0" width="9.30000019" height="8"></rect>
                </g>
                <path d="M31.8588235,4 C27.9058824,4 24.5176471,7.01176471 23.9529412,10.8705882 L19.9058824,10.8705882 C19.3411765,7.01176471 16.0470588,4 12,4 C7.57647059,4 4,7.57647059 4,12 C4,16.4235294 7.57647059,20 12,20 C15.9529412,20 19.3411765,16.9882353 19.9058824,13.1294118 L23.9529412,13.1294118 C24.5176471,16.9882353 27.8117647,20 31.8588235,20 C36.2823529,20 39.8588235,16.4235294 39.8588235,12 C39.8588235,7.57647059 36.2823529,4 31.8588235,4 Z M12.1882353,17.6470588 C9.08235294,17.6470588 6.54117647,15.1058824 6.54117647,12 C6.54117647,8.89411765 9.08235294,6.35294118 12.1882353,6.35294118 C15.2941176,6.35294118 17.8352941,8.89411765 17.8352941,12 C17.7411765,15.1058824 15.2941176,17.6470588 12.1882353,17.6470588 Z M31.8588235,17.6470588 C28.7529412,17.6470588 26.2117647,15.1058824 26.2117647,12 C26.2117647,8.89411765 28.7529412,6.35294118 31.8588235,6.35294118 C34.9647059,6.35294118 37.5058824,8.89411765 37.5058824,12 C37.5058824,15.1058824 35.0588235,17.6470588 31.8588235,17.6470588 Z" id="glasses2" fill="#833B23" fill-rule="nonzero"></path>
            </g>
        </g>
    </g>
</svg>