<?xml version="1.0" encoding="UTF-8"?>
<svg width="46px" height="41px" viewBox="0 0 46 41" version="1.1" xmlns="http://www.w3.org/2000/svg" xmlns:xlink="http://www.w3.org/1999/xlink">
    <!-- Generator: Sketch 46.2 (44496) - http://www.bohemiancoding.com/sketch -->
    <title>glasses1</title>
    <desc>Created with Sketch.</desc>
    <defs></defs>
    <g id="Page-1" stroke="none" stroke-width="1" fill="none" fill-rule="evenodd">
        <g id="glasses" transform="translate(0.000000, -65.000000)">
            <g id="glasses1" transform="translate(0.000000, 65.000000)">
                <g id="Boundaries" opacity="0.01">
                    <rect id="Rectangle" fill="#8D6464" opacity="0.545629529" x="0" y="0" width="46" height="41"></rect>
                    <path d="M45.5,8.5 L3.5,8.5" id="Line" stroke="#979797" stroke-linecap="square"></path>
                    <rect id="right" fill="#26E213" x="27.0999756" y="0" width="9.30000019" height="8"></rect>
                    <rect id="left" fill="#26E213" x="9.90002441" y="0" width="9.30000019" height="8"></rect>
                </g>
                <g id="Group" transform="translate(5.000000, 6.000000)" fill-rule="nonzero">
                    <path d="M12.4,11.4 L3.4,11.4 C1.5,11.4 0,9.8 0,7.9 L0,4 C0,2.1 1.5,0.5 3.4,0.5 L12.4,0.5 C14.3,0.5 15.8,2.1 15.8,4 L15.8,7.9 C15.9,9.8 14.3,11.4 12.4,11.4 Z M3.4,2.1 C2.4,2.1 1.5,3 1.5,4 L1.5,7.9 C1.5,9 2.3,9.8 3.4,9.8 L12.4,9.8 C13.4,9.8 14.3,8.9 14.3,7.9 L14.3,4 C14.3,2.9 13.5,2.1 12.4,2.1 L3.4,2.1 Z" id="Shape"></path>
                    <path d="M31.6,11.4 L22.6,11.4 C20.7,11.4 19.2,9.8 19.2,7.9 L19.2,4 C19.2,2.1 20.7,0.5 22.6,0.5 L31.6,0.5 C33.5,0.5 35,2.1 35,4 L35,7.9 C35,9.8 33.5,11.4 31.6,11.4 Z M22.6,2.1 C21.6,2.1 20.7,3 20.7,4 L20.7,7.9 C20.7,9 21.5,9.8 22.6,9.8 L31.6,9.8 C32.6,9.8 33.5,8.9 33.5,7.9 L33.5,4 C33.5,2.9 32.7,2.1 31.6,2.1 L22.6,2.1 Z" id="Shape"></path>
                    <rect id="Rectangle-path" x="15.2" y="5.2" width="4.7" height="1.8"></rect>
                </g>
            </g>
        </g>
    </g>
</svg>