<?xml version="1.0" encoding="UTF-8"?>
<svg width="46px" height="41px" viewBox="0 0 46 41" version="1.1" xmlns="http://www.w3.org/2000/svg" xmlns:xlink="http://www.w3.org/1999/xlink">
    <!-- Generator: Sketch 46.2 (44496) - http://www.bohemiancoding.com/sketch -->
    <title>eyebrows6</title>
    <desc>Created with Sketch.</desc>
    <defs></defs>
    <g id="Page-1" stroke="none" stroke-width="1" fill="none" fill-rule="evenodd">
        <g id="Eyebrows" transform="translate(-270.000000, -1.000000)">
            <g id="color1">
                <g id="eyebrows6" transform="translate(270.000000, 1.000000)">
                    <g id="Boundaries" opacity="0.01">
                        <rect id="Rectangle" fill="#8D6464" opacity="0.545629529" x="0" y="0" width="46" height="41"></rect>
                        <path d="M45.5,8.5 L3.5,8.5" id="Line" stroke="#979797" stroke-linecap="square"></path>
                        <rect id="right" fill="#26E213" x="27.0999756" y="0" width="9.30000019" height="8"></rect>
                        <rect id="left" fill="#26E213" x="9.90002441" y="0" width="9.30000019" height="8"></rect>
                    </g>
                    <g id="Group-3" transform="translate(10.000000, 5.000000)" fill-rule="nonzero" fill="#E36A41">
                        <path d="M10.7,2.7 C10.7,4.2 9.5,5.4 8,5.4 L2.7,5.4 C1.2,5.4 0,4.2 0,2.7 L0,2.7 C0,1.2 1.2,0 2.7,0 L8,0 C9.5,0 10.7,1.2 10.7,2.7 L10.7,2.7 Z" id="Shape"></path>
                        <path d="M25.6,2.7 C25.6,4.2 24.4,5.4 22.9,5.4 L17.6,5.4 C16.1,5.4 14.9,4.2 14.9,2.7 L14.9,2.7 C14.9,1.2 16.1,0 17.6,0 L22.9,0 C24.4,0 25.6,1.2 25.6,2.7 L25.6,2.7 Z" id="Shape"></path>
                    </g>
                </g>
            </g>
        </g>
    </g>
</svg>