<?xml version="1.0" encoding="UTF-8"?>
<svg width="46px" height="41px" viewBox="0 0 46 41" version="1.1" xmlns="http://www.w3.org/2000/svg" xmlns:xlink="http://www.w3.org/1999/xlink">
    <!-- Generator: Sketch 46.2 (44496) - http://www.bohemiancoding.com/sketch -->
    <title>eyebrows2</title>
    <desc>Created with Sketch.</desc>
    <defs></defs>
    <g id="Page-1" stroke="none" stroke-width="1" fill="none" fill-rule="evenodd">
        <g id="Eyebrows" transform="translate(-57.000000, 0.000000)">
            <g id="color1">
                <g id="eyebrows2" transform="translate(57.000000, 0.000000)">
                    <g id="Boundaries" opacity="0.01">
                        <rect id="Rectangle" fill="#8D6464" opacity="0.545629529" x="0" y="0" width="46" height="41"></rect>
                        <path d="M45.5,8.5 L3.5,8.5" id="Line" stroke="#979797" stroke-linecap="square"></path>
                        <rect id="right" fill="#26E213" x="27.0999756" y="0" width="9.30000019" height="8"></rect>
                        <rect id="left" fill="#26E213" x="9.90002441" y="0" width="9.30000019" height="8"></rect>
                    </g>
                    <path d="M10.720825,7.14029785 C12.920825,6.64029785 15.220825,6.24029785 17.420825,5.74029785 C19.120825,5.34029785 18.420825,2.64029785 16.720825,3.04029785 C14.520825,3.54029785 12.220825,3.94029785 10.020825,4.44029785 C8.22082498,4.84029785 9.02082498,7.44029785 10.720825,7.14029785 L10.720825,7.14029785 Z" id="Shape" fill="#E36A41" fill-rule="nonzero"></path>
                    <path d="M35.620825,4.44029785 C33.420825,3.94029785 31.120825,3.54029785 28.920825,3.04029785 C27.220825,2.64029785 26.420825,5.34029785 28.220825,5.74029785 C30.420825,6.24029785 32.720825,6.64029785 34.920825,7.14029785 C36.620825,7.44029785 37.420825,4.84029785 35.620825,4.44029785 L35.620825,4.44029785 Z" id="Shape" fill="#E36A41" fill-rule="nonzero"></path>
                </g>
            </g>
        </g>
    </g>
</svg>