<?xml version="1.0" encoding="UTF-8"?>
<svg width="105px" height="106px" viewBox="0 0 105 106" version="1.1" xmlns="http://www.w3.org/2000/svg" xmlns:xlink="http://www.w3.org/1999/xlink">
    <!-- Generator: Sketch 46.2 (44496) - http://www.bohemiancoding.com/sketch -->
    <title>Group</title>
    <desc>Created with Sketch.</desc>
    <defs></defs>
    <g id="Page-1" stroke="none" stroke-width="1" fill="none" fill-rule="evenodd">
        <g id="Group" fill-rule="nonzero">
            <path d="M104.3,105.6 L104.3,105.4 C104.3,91 98.9,77.1 92.4,74.4 L64.5,63.1 C58,60.4 47.2,60.4 40.7,63.1 L12.4,74.5 C5.8,77.1 0.5,91.1 0.5,105.4 L0.5,105.6 L104.3,105.6 Z" id="Shape" fill="#51646F"></path>
            <g transform="translate(26.000000, 25.000000)" id="Shape" fill="#F58F63">
                <path d="M10.6,7.5 C12.1,12 11.3,16.4 8.7,17.3 C6.1,18.2 2.8,15.3 1.2,10.8 C-0.3,6.3 0.5,1.9 3.1,1 C5.7,-2.22044605e-16 9.1,3 10.6,7.5 Z"></path>
                <path d="M42.1,7.5 C40.6,12 41.4,16.4 44,17.3 C46.6,18.2 49.9,15.3 51.5,10.8 C53,6.3 52.2,1.9 49.6,1 C47,-2.22044605e-16 43.7,3 42.1,7.5 Z"></path>
            </g>
            <path d="M63.3,64.1 C63.3,69.8 58.7,74.4 53,74.4 L51.8,74.4 C46.1,74.4 41.5,69.8 41.5,64.1 L41.5,37.5 C41.5,31.8 46.1,27.2 51.8,27.2 L53,27.2 C58.7,27.2 63.3,31.8 63.3,37.5 L63.3,64.1 Z" id="Shape" fill="#F58F63"></path>
            <path d="M73.5,35 C73.5,47.1 64.1,56.8 52.4,56.8 L52.4,56.8 C40.7,56.8 31.3,47 31.3,35 L31.3,22.4 C31.3,10.3 40.7,0.6 52.4,0.6 L52.4,0.6 C64,0.6 73.5,10.4 73.5,22.4 L73.5,35 Z" id="Shape" fill="#F7A584"></path>
        </g>
    </g>
</svg>