<?xml version="1.0" encoding="UTF-8"?>
<svg width="401px" height="106px" viewBox="0 0 401 106" version="1.1" xmlns="http://www.w3.org/2000/svg" xmlns:xlink="http://www.w3.org/1999/xlink">
    <!-- Generator: Sketch 46.2 (44496) - http://www.bohemiancoding.com/sketch -->
    <title>skin2</title>
    <desc>Created with Sketch.</desc>
    <defs></defs>
    <g id="Page-1" stroke="none" stroke-width="1" fill="none" fill-rule="evenodd">
        <g id="skin2" fill-rule="nonzero">
            <g id="Group" transform="translate(148.000000, 0.000000)">
                <path d="M104.1,105.898077 L104.1,105.694231 C104.1,91.0173077 98.8,76.7480769 92.2,74.0980769 L64.4,62.5807692 C57.9,59.8288462 47.2,59.8288462 40.7,62.5807692 L12.5,74.2 C6,76.85 0.6,91.1192308 0.6,105.796154 L0.6,106 L104.1,106 L104.1,105.898077 Z" id="Shape" fill="#51646F"></path>
                <path d="M63.2,62.9884615 C63.2,68.7980769 58.6,73.5884615 52.9,73.5884615 L51.7,73.5884615 C46,73.5884615 41.4,68.9 41.4,62.9884615 L41.4,35.775 C41.4,29.9653846 46,25.175 51.7,25.175 L52.9,25.175 C58.6,25.175 63.2,29.8634615 63.2,35.775 L63.2,62.9884615 Z" id="Shape" fill="#F58F63"></path>
                <path d="M73.4,36.0807692 C73.4,48.4134615 64,58.4019231 52.4,58.4019231 L52.4,58.4019231 C40.8,58.4019231 31.4,48.4134615 31.4,36.0807692 L31.4,23.2384615 C31.4,10.9057692 40.8,0.917307692 52.4,0.917307692 L52.4,0.917307692 C64,0.917307692 73.4,10.9057692 73.4,23.2384615 L73.4,36.0807692 Z" id="Shape" fill="#F7A584"></path>
            </g>
            <g id="Group">
                <path d="M104.3,105.6 L104.3,105.4 C104.3,91 98.9,77.1 92.4,74.4 L64.5,63.1 C58,60.4 47.2,60.4 40.7,63.1 L12.4,74.5 C5.8,77.1 0.5,91.1 0.5,105.4 L0.5,105.6 L104.3,105.6 Z" id="Shape" fill="#51646F"></path>
                <path d="M63.3,64.1 C63.3,69.8 58.7,74.4 53,74.4 L51.8,74.4 C46.1,74.4 41.5,69.8 41.5,64.1 L41.5,37.5 C41.5,31.8 46.1,27.2 51.8,27.2 L53,27.2 C58.7,27.2 63.3,31.8 63.3,37.5 L63.3,64.1 Z" id="Shape" fill="#F58F63"></path>
                <g transform="translate(26.000000, 25.000000)" id="Shape" fill="#F58F63">
                    <path d="M10.6,7.5 C12.1,12 11.3,16.4 8.7,17.3 C6.1,18.2 2.8,15.3 1.2,10.8 C-0.3,6.3 0.5,1.9 3.1,1 C5.7,-2.22044605e-16 9.1,3 10.6,7.5 Z"></path>
                    <path d="M42.1,7.5 C40.6,12 41.4,16.4 44,17.3 C46.6,18.2 49.9,15.3 51.5,10.8 C53,6.3 52.2,1.9 49.6,1 C47,-2.22044605e-16 43.7,3 42.1,7.5 Z"></path>
                </g>
                <path d="M73.5,35 C73.5,47.1 64.1,56.8 52.4,56.8 L52.4,56.8 C40.7,56.8 31.3,47 31.3,35 L31.3,22.4 C31.3,10.3 40.7,0.6 52.4,0.6 L52.4,0.6 C64,0.6 73.5,10.4 73.5,22.4 L73.5,35 Z" id="Shape" fill="#F7A584"></path>
            </g>
            <g id="head3" transform="translate(296.000000, 0.000000)">
                <path d="M104.3,105.064706 L104.3,104.856863 C104.2,89.8921569 98.7,75.3431373 92.2,72.6411765 L64.2,61.1058824 C57.6,58.4039216 46.9,58.4039216 40.4,61.2098039 L12.2,73.2647059 C5.7,76.0705882 0.4,90.6196078 0.5,105.584314 L0.5,105.792157 L104.3,105.064706 Z" id="Shape" fill="#51646F"></path>
                <path d="M64.3,61.0019608 C64.3,67.5490196 59.3,72.745098 53,72.745098 L51.6,72.745098 C45.4,72.745098 40.3,67.445098 40.3,61.0019608 L40.3,30.6568627 C40.3,24.1098039 45.3,18.9137255 51.6,18.9137255 L53,18.9137255 C59.2,18.9137255 64.3,24.2137255 64.3,30.6568627 L64.3,61.0019608 Z" id="Shape" fill="#F58F63"></path>
                <g id="Group" transform="translate(26.000000, 22.862745)" fill="#F58F63">
                    <path d="M10.7,6.44313725 C12.3,10.0803922 11.5,13.6137255 8.9,14.3411765 C6.3,15.0686275 3,12.7823529 1.4,9.14509804 C-0.2,5.50784314 0.6,1.9745098 3.2,1.24705882 C5.7,0.519607843 9.1,2.80588235 10.7,6.44313725 Z" id="Shape"></path>
                    <path d="M42.1,6.23529412 C40.6,9.87254902 41.4,13.4058824 44,14.1333333 C46.6,14.8607843 49.9,12.4705882 51.4,8.83333333 C52.9,5.19607843 52.1,1.6627451 49.5,0.935294118 C47,0.207843137 43.7,2.59803922 42.1,6.23529412 Z" id="Shape"></path>
                </g>
                <path d="M54.7,0.935294118 L50.2,0.935294118 C43.7,0.935294118 37.7,4.26078431 34,9.76862745 C34,9.76862745 34,9.76862745 34,9.76862745 C32.2,12.4705882 31.4,15.7960784 31.8,19.1215686 L34.8,45.3098039 C34.8,49.7784314 38.5,53.3117647 43,53.3117647 L62.4,53.3117647 C66.9,53.3117647 70.6,49.6745098 70.6,45.3098039 L73.2,19.0176471 C73.5,15.5882353 72.6,12.054902 70.5,9.24901961 C70.4,9.04117647 70.2,8.9372549 70.1,8.72941176 C66.4,3.84509804 60.7,0.935294118 54.7,0.935294118 Z" id="Shape" fill="#F7A584"></path>
            </g>
        </g>
    </g>
</svg>