<?xml version="1.0" encoding="UTF-8"?>
<svg width="84px" height="72px" viewBox="0 0 84 72" version="1.1" xmlns="http://www.w3.org/2000/svg" xmlns:xlink="http://www.w3.org/1999/xlink">
    <!-- Generator: Sketch 46.2 (44496) - http://www.bohemiancoding.com/sketch -->
    <title>hair7</title>
    <desc>Created with Sketch.</desc>
    <defs></defs>
    <g id="Page-1" stroke="none" stroke-width="1" fill="none" fill-rule="evenodd">
        <g id="color2" transform="translate(-595.000000, -4.000000)">
            <g id="hair7" transform="translate(595.000000, 4.000000)">
                <g id="Boundaries" opacity="0.00792572464">
                    <rect id="Rectangle-Copy-4" fill="#8D6464" opacity="0.380661232" x="0" y="0" width="84" height="72"></rect>
                    <path d="M83.5,16.5 L3.5,16.5" id="Line" stroke="#979797" stroke-linecap="square"></path>
                    <path d="M62.5,39.5 L20.5,39.5" id="Line" stroke="#979797" stroke-linecap="square"></path>
                    <rect id="right" fill="#26E213" opacity="0" x="44.0999756" y="31" width="9.30000019" height="8"></rect>
                    <rect id="left" fill="#26E213" opacity="0" x="26.9000244" y="31" width="9.30000019" height="8"></rect>
                    <g id="Group" transform="translate(26.000000, 33.579987)" fill-rule="nonzero" fill="#E36A41">
                        <path d="M3.3,4.12389748 C4.8,2.82389748 6.8,2.32389748 8.6,2.92389748 C10.3,3.42389748 11,0.823897481 9.3,0.323897481 C6.5,-0.476102519 3.5,0.223897481 1.4,2.22389748 C0.1,3.42389748 2,5.32389748 3.3,4.12389748 L3.3,4.12389748 Z" id="Shape"></path>
                        <path d="M27,2.22389748 C24.8,0.223897481 21.9,-0.476102519 19.1,0.323897481 C17.4,0.823897481 18.1,3.42389748 19.8,2.92389748 C21.7,2.42389748 23.7,2.82389748 25.1,4.12389748 C26.4,5.32389748 28.3,3.42389748 27,2.22389748 L27,2.22389748 Z" id="Shape"></path>
                    </g>
                    <g id="Group" transform="translate(30.000000, 53.000000)" fill-rule="nonzero" fill="#BA4A27">
                        <polygon id="Shape" points="10.2666667 3.8 0 3.8 10.2666667 0.3"></polygon>
                        <polygon id="Shape" points="11.1047619 3.8 21.3714286 3.8 11.1047619 0.3"></polygon>
                    </g>
                </g>
                <g id="Group" transform="translate(17.000000, 9.000000)" fill-rule="nonzero" fill="#F0CA4A" opacity="0">
                    <g id="Shape">
                        <polygon points="3.47234043 34.6 0.714893617 34.6 0.714893617 16.3 6.53617021 13.3"></polygon>
                        <path d="M37.8893617,0.5 L24.7148936,0.5 L23.2851064,0.5 L10.1106383,0.5 C4.90212766,0.5 0.714893617,4.7 0.714893617,9.8 L0.714893617,18.2 L0.714893617,24.2 C3.26808511,17.6 5.71914894,14.8 11.1319149,14 C12.0510638,17.1 17.4638298,19.5 24,19.5 C30.5361702,19.5 35.9489362,17.1 36.8680851,14 C42.2808511,14.8 44.7319149,17.5 47.2851064,24.2 L47.2851064,18.2 L47.2851064,9.8 C47.2851064,4.6 43.0978723,0.5 37.8893617,0.5 Z"></path>
                        <polygon points="47 34 44.1578947 34 41 13 47 15.9577465"></polygon>
                    </g>
                </g>
                <g id="Group-2" transform="translate(18.000000, 4.000000)" fill-rule="nonzero" fill="#B64A24">
                    <g id="Group" transform="translate(0.000000, 16.000000)">
                        <polygon id="Shape" points="41.8295455 20.7 44.4886364 20.7 44.6931818 3.3 39.1704545 0.5"></polygon>
                        <polygon id="Shape" points="0 20.6 2.65909091 20.6 5.625 0.5 0 3.2"></polygon>
                    </g>
                    <g id="Group" transform="translate(1.000000, 0.000000)">
                        <path d="M41.3853659,21.2372854 C40.8731707,25.3980979 36.8780488,28.4241433 32.3707317,27.9513237 L17.6195122,26.5328649 C13.1121951,26.0600453 9.83414634,22.3720525 10.3463415,18.21124 L10.3463415,18.21124 C10.8585366,14.0504276 14.8536585,11.0243822 19.3609756,11.4972018 L34.1121951,12.9156606 C38.5170732,13.2939163 41.795122,17.076473 41.3853659,21.2372854 L41.3853659,21.2372854 Z" id="Shape"></path>
                        <g id="Shape">
                            <path d="M21.6146341,11.8460312 L24.2780488,26.1370358 C23.4585366,26.332803 22.6390244,26.5285702 21.7170732,26.6264538 C11.6780488,28.0947077 2.25365854,22.3195757 0.614634146,13.7058195 C-0.307317073,8.51798902 1.74146341,3.52592576 5.83902439,0.1 C7.68292683,6.56031715 14.1365854,11.160846 21.6146341,11.8460312 Z"></path>
                            <path d="M21.8195122,12 C17.7219512,12.4 14.6487805,16.1 15.0585366,20.2 C15.4682927,24.3 19.0536585,27.3 23.1512195,26.8 C27.2487805,26.4 30.3219512,22.7 29.9121951,18.6 C29.604878,14.5 25.9170732,11.6 21.8195122,12 Z"></path>
                        </g>
                    </g>
                    <path d="M40.9898557,17.5089546 C40.5772142,21.3316394 33.1496684,23.6453697 24.3810378,22.840594 C15.5092469,22.0358182 8.70066324,18.3137303 9.01014432,14.4910454 C9.42278575,10.6683606 16.8503316,8.35463028 25.6189622,9.15940604 C34.4907531,9.9641818 41.2993368,13.6862697 40.9898557,17.5089546 Z" id="Shape"></path>
                </g>
            </g>
        </g>
    </g>
</svg>