<?xml version="1.0" encoding="UTF-8"?>
<svg width="20px" height="27px" viewBox="0 0 20 27" version="1.1" xmlns="http://www.w3.org/2000/svg" xmlns:xlink="http://www.w3.org/1999/xlink">
    <!-- Generator: Sketch 46.2 (44496) - http://www.bohemiancoding.com/sketch -->
    <title>face4</title>
    <desc>Created with Sketch.</desc>
    <defs></defs>
    <g id="Page-1" stroke="none" stroke-width="1" fill="none" fill-rule="evenodd">
        <g id="Faces" transform="translate(-166.000000, -30.000000)" fill-rule="nonzero">
            <g id="face4" transform="translate(166.000000, 30.000000)">
                <path d="M3,18.6000061 C3,18.6000061 3,18.7000061 3,18.7000061 C3,23.0000061 6.5,26.5000061 10.8,26.5000061 C15.1,26.5000061 18.6,23.0000061 18.6,18.7000061 C18.6,18.7000061 18.6,18.6000061 18.6,18.6000061 L3,18.6000061 Z" id="Shape" fill="#0B2C48"></path>
                <ellipse id="Oval" fill="#0B2C48" cx="2.90001225" cy="2.79999399" rx="2.20000005" ry="2.4000001"></ellipse>
                <ellipse id="Oval" fill="#0B2C48" cx="17.4999878" cy="2.7999939" rx="2.2" ry="2.4"></ellipse>
                <path d="M4.5,18.6000061 L4.5,19.3000061 C4.5,20.6000061 5.60000002,21.7000061 6.90000004,21.7000061 L14.9000002,21.7000061 C16.2000002,21.7000061 17.3000002,20.6000061 17.3000002,19.3000061 L17.3000002,18.6000061 L4.5,18.6000061 Z" id="Shape" fill="#FFFFFF"></path>
            </g>
        </g>
    </g>
</svg>