<?xml version="1.0" encoding="UTF-8"?>
<svg width="46px" height="42px" viewBox="0 0 46 42" version="1.1" xmlns="http://www.w3.org/2000/svg" xmlns:xlink="http://www.w3.org/1999/xlink">
    <!-- Generator: Sketch 46.2 (44496) - http://www.bohemiancoding.com/sketch -->
    <title>facial7</title>
    <desc>Created with Sketch.</desc>
    <defs></defs>
    <g id="Page-1" stroke="none" stroke-width="1" fill="none" fill-rule="evenodd">
        <g id="Facial" transform="translate(-333.000000, 0.000000)">
            <g id="color1">
                <g id="facial7" transform="translate(333.000000, 0.000000)">
                    <g id="Boundaries" opacity="0.01">
                        <rect id="Rectangle-Copy-2" fill="#8D6464" opacity="0.545629529" x="0" y="0" width="46" height="41"></rect>
                        <path d="M45.5,8.5 L3.5,8.5" id="Line" stroke="#979797" stroke-linecap="square"></path>
                        <rect id="right" fill="#26E213" x="27.0999756" y="0" width="9.30000019" height="8"></rect>
                        <rect id="left" fill="#26E213" x="9.90002441" y="0" width="9.30000019" height="8"></rect>
                    </g>
                    <g id="Group" transform="translate(9.000000, 2.000000)" fill-rule="nonzero" fill="#E36A41">
                        <path d="M3.3,4.70388405 C4.8,3.40388405 6.8,2.90388405 8.6,3.50388405 C10.3,4.00388405 11,1.40388405 9.3,0.903884053 C6.5,0.103884053 3.5,0.803884053 1.4,2.80388405 C0.1,4.00388405 2,5.90388405 3.3,4.70388405 L3.3,4.70388405 Z" id="Shape"></path>
                        <path d="M27,2.80388405 C24.8,0.803884053 21.9,0.103884053 19.1,0.903884053 C17.4,1.40388405 18.1,4.00388405 19.8,3.50388405 C21.7,3.00388405 23.7,3.40388405 25.1,4.70388405 C26.4,5.90388405 28.3,4.00388405 27,2.80388405 L27,2.80388405 Z" id="Shape"></path>
                    </g>
                    <path d="M32.7185953,25.3517787 C38.3585952,25.3517787 43.2935951,21.3438735 44.2000237,16 L44.2000237,30.798419 C44.2000237,36.9644269 39.0635952,42 32.7185953,42 L13.3814528,42 C7.03645289,42 1.90002441,36.9644269 1.90002441,30.798419 L1.90002441,16 C2.80645297,21.3438735 7.74145288,25.3517787 13.3814528,25.3517787 L32.7185953,25.3517787 Z M16.7500244,26.3 L16.7500244,26.3 C14.6237281,26.3 12.9000244,28.0237037 12.9000244,30.15 C12.9000244,32.2762963 14.6237281,34 16.7500244,34 L16.7500244,34 L30.0500244,34 C32.1763207,34 33.9000244,32.2762963 33.9000244,30.15 L33.9000244,30.15 C33.9000244,28.0237037 32.1763207,26.3 30.0500244,26.3 L30.0500244,26.3 L16.7500244,26.3 Z" id="Combined-Shape" fill="#BA4A27" fill-rule="nonzero"></path>
                </g>
            </g>
        </g>
    </g>
</svg>